<svg id="Layer_1" data-name="Layer 1" xmlns="http://www.w3.org/2000/svg" viewBox="0 0 669.61 468"><defs><style>.cls-1{fill:#fff;}</style></defs><path class="cls-1" d="M28.52,282.5A100.58,100.58,0,0,1,14,281.56a56.32,56.32,0,0,1-11.36-2.83v-3.62A80.08,80.08,0,0,0,14.69,278a86.85,86.85,0,0,0,13.83,1q14.63,0,22.3-5.07t7.67-16.06a18.49,18.49,0,0,0-3-10.94q-3-4.26-9.49-7A91.84,91.84,0,0,0,29.1,235a74,74,0,0,1-17.23-5.5q-6.37-3.18-9.12-7.75A20.8,20.8,0,0,1,0,210.83a22.41,22.41,0,0,1,7.75-17.66q7.74-6.79,24.68-6.8a89.65,89.65,0,0,1,14.33,1.08,59.89,59.89,0,0,1,9.85,2.25v3.62a58.36,58.36,0,0,0-10.5-2.46A85.36,85.36,0,0,0,33.59,190Q19,190,11.44,195.05T3.91,210.83a17,17,0,0,0,2.53,9.7Q9,224.3,15.13,227a99.6,99.6,0,0,0,17,5.14q11.3,2.46,18,5.93t9.48,8.25a22.35,22.35,0,0,1,2.83,11.59q0,12.58-8.76,18.6T28.52,282.5Z"/><path class="cls-1" d="M110.61,281V188h34.6q14.94,0,21.76,7.54t6.82,20.18q0,12.92-7.75,20.1T144.64,243h-30v38Zm4-41H145q12.39,0,18.74-6.41t6.34-17.37q0-11.68-6-17.95T145.74,192H114.61Z"/><path class="cls-1" d="M220.61,281V188h37q14.16,0,20.37,7.15t6.21,19.42q0,11.13-5.27,17.91t-16,8.37a11.4,11.4,0,0,1,5.27,3.83,38.68,38.68,0,0,1,3.39,6.28l12.85,30h-4.68l-12.57-28.86a22.26,22.26,0,0,0-3.5-5.93,11.08,11.08,0,0,0-5.43-3.21,37.2,37.2,0,0,0-9.79-1H224.61v39Zm4-43h31.24q11,0,17.48-5.37t6.45-17.85q0-22.77-22.07-22.78h-33.1Z"/><path class="cls-1" d="M323.56,281l35.09-93h6.5l35,93h-4.05l-34.22-90.69L327.75,281Zm38.27-90.63"/><path class="cls-1" d="M458.61,281V246.05L425.89,188H430l30.58,54.3L491.18,188h4.14l-32.71,58.05V281Z"/><path class="cls-1" d="M563.61,282.42a30.49,30.49,0,0,1-11.86-2.27,20.31,20.31,0,0,1-8.72-6.77,18.63,18.63,0,0,1-3.28-11.31,20.13,20.13,0,0,1,6.14-15.16q6.15-5.91,20-5.91h23.72v-4.18a21.94,21.94,0,0,0-1.51-8.92,9.07,9.07,0,0,0-5.66-4.76c-2.77-.95-6.83-1.44-12.19-1.44a68.69,68.69,0,0,0-11.89,1,70.06,70.06,0,0,0-10.75,2.74V216a59.66,59.66,0,0,1,10.78-2.78,79.05,79.05,0,0,1,13.36-1.07q14.43,0,21.64,5.84t7.22,18.93V281h-9.86l-.86-7.69a28,28,0,0,1-10.71,6.84A46.3,46.3,0,0,1,563.61,282.42Zm3-10.24a31.15,31.15,0,0,0,13.24-2.66,29.16,29.16,0,0,0,9.8-7.27V249H566.13q-8.05,0-11.52,3t-3.45,9.22q0,6.19,4.17,8.57T566.57,272.18Z"/><path class="cls-1" d="M656.61,281V222H646.5l1.11-9h21v68Zm-1-84V186h13v11Z"/><circle class="cls-1" cx="30.61" cy="98" r="7"/><circle class="cls-1" cx="136.61" cy="98" r="7"/><circle class="cls-1" cx="241.61" cy="98" r="7"/><circle class="cls-1" cx="346.61" cy="98" r="7"/><circle class="cls-1" cx="451.61" cy="98" r="7"/><circle class="cls-1" cx="557.61" cy="98" r="7"/><circle class="cls-1" cx="662.61" cy="98" r="7"/><circle class="cls-1" cx="30.61" cy="7" r="7"/><circle class="cls-1" cx="136.61" cy="7" r="7"/><circle class="cls-1" cx="241.61" cy="7" r="7"/><circle class="cls-1" cx="346.61" cy="7" r="7"/><circle class="cls-1" cx="451.61" cy="7" r="7"/><circle class="cls-1" cx="557.61" cy="7" r="7"/><circle class="cls-1" cx="662.61" cy="7" r="7"/><circle class="cls-1" cx="30.61" cy="461" r="7"/><circle class="cls-1" cx="136.61" cy="461" r="7"/><circle class="cls-1" cx="241.61" cy="461" r="7"/><circle class="cls-1" cx="346.61" cy="461" r="7"/><circle class="cls-1" cx="451.61" cy="461" r="7"/><circle class="cls-1" cx="557.61" cy="461" r="7"/><circle class="cls-1" cx="662.61" cy="461" r="7"/><circle class="cls-1" cx="30.61" cy="370" r="7"/><circle class="cls-1" cx="136.61" cy="370" r="7"/><circle class="cls-1" cx="241.61" cy="370" r="7"/><circle class="cls-1" cx="346.61" cy="370" r="7"/><circle class="cls-1" cx="451.61" cy="370" r="7"/><circle class="cls-1" cx="557.61" cy="370" r="7"/><circle class="cls-1" cx="662.61" cy="370" r="7"/></svg>